HIERARCHY
ROOT Hips
{
 OFFSET 0.000000 0.000000 0.000000
 CHANNELS 6 Xposition Yposition Zposition Yrotation Xrotation Zrotation
 JOINT Chest
 {
  OFFSET 0.000000 9.118891 -0.003343
  CHANNELS 3 Yrotation Xrotation Zrotation
  JOINT Chest2
  {
   OFFSET 0.000000 9.974827 0.006072
   CHANNELS 3 Yrotation Xrotation Zrotation
   JOINT Chest3
   {
    OFFSET 0.000000 9.012192 0.000000
    CHANNELS 3 Yrotation Xrotation Zrotation
    JOINT Chest4
    {
     OFFSET 0.000000 9.012192 0.000000
     CHANNELS 3 Yrotation Xrotation Zrotation
     JOINT Neck
     {
      OFFSET 0.000000 12.705587 0.000000
      CHANNELS 3 Yrotation Xrotation Zrotation
      JOINT Head
      {
       OFFSET 0.000000 8.391369 0.014439
       CHANNELS 3 Yrotation Xrotation Zrotation
       End Site
       {
        OFFSET 0.000000 16.040357 0.007542
       }
      }
     }
     JOINT RightCollar
     {
      OFFSET -2.776401 7.093167 0.000000
      CHANNELS 3 Yrotation Xrotation Zrotation
      JOINT RightShoulder
      {
       OFFSET -13.069743 0.000000 0.000000
       CHANNELS 3 Yrotation Xrotation Zrotation
       JOINT RightElbow
       {
        OFFSET 0.000000 -28.086887 0.000000
        CHANNELS 3 Yrotation Xrotation Zrotation
        JOINT RightWrist
        {
         OFFSET 0.000000 -22.938724 0.000000
         CHANNELS 3 Yrotation Xrotation Zrotation
         End Site
         {
          OFFSET 0.000000 -17.079533 0.000000
         }
        }
       }
      }
     }
     JOINT LeftCollar
     {
      OFFSET 2.776401 7.093167 0.000000
      CHANNELS 3 Yrotation Xrotation Zrotation
      JOINT LeftShoulder
      {
       OFFSET 13.069743 0.000000 0.000000
       CHANNELS 3 Yrotation Xrotation Zrotation
       JOINT LeftElbow
       {
        OFFSET 0.000000 -28.086887 0.000000
        CHANNELS 3 Yrotation Xrotation Zrotation
        JOINT LeftWrist
        {
         OFFSET 0.000000 -22.938724 0.000000
         CHANNELS 3 Yrotation Xrotation Zrotation
         End Site
         {
          OFFSET 0.000000 -17.079533 0.000000
         }
        }
       }
      }
     }
    }
   }
  }
 }
 JOINT RightHip
 {
  OFFSET -7.432142 0.016379 0.001671
  CHANNELS 3 Yrotation Xrotation Zrotation
  JOINT RightKnee
  {
   OFFSET 0.000000 -38.693556 -0.001581
   CHANNELS 3 Yrotation Xrotation Zrotation
   JOINT RightAnkle
   {
    OFFSET 0.000000 -37.632671 -0.002674
    CHANNELS 3 Yrotation Xrotation Zrotation
    JOINT RightToe
    {
     OFFSET 0.000000 -6.431303 14.619699
     CHANNELS 3 Yrotation Xrotation Zrotation
     End Site
     {
      OFFSET 0.000000 -1.406368 6.076152
     }
    }
   }
  }
 }
 JOINT LeftHip
 {
  OFFSET 7.432142 0.016379 0.001671
  CHANNELS 3 Yrotation Xrotation Zrotation
  JOINT LeftKnee
  {
   OFFSET 0.000000 -38.693556 -0.001581
   CHANNELS 3 Yrotation Xrotation Zrotation
   JOINT LeftAnkle
   {
    OFFSET 0.000000 -37.632671 -0.002674
    CHANNELS 3 Yrotation Xrotation Zrotation
    JOINT LeftToe
    {
     OFFSET 0.000000 -6.431303 14.619699
     CHANNELS 3 Yrotation Xrotation Zrotation
     End Site
     {
      OFFSET 0.000000 -1.406368 6.076152
     }
    }
   }
  }
 }
}
MOTION
Frames: 13
Frame Time: 0.008333
39.674996 50.615523 261.540123 -62.976215 -38.568681 0.085921 2.381670 10.788841 -3.370019 1.141440 4.768317 -0.907135 1.141440 4.768317 -0.907135 0.862679 3.574569 -0.688885 -1.944537 23.173857 3.334968 -2.878909 -1.015888 4.063607 -6.604276 11.288066 17.723454 26.617574 -17.322133 -35.390849 55.663947 -49.776660 -19.536369 14.849145 -1.914615 -1.871859 -6.823931 11.563812 -5.721445 -7.707810 -30.076204 15.146676 -70.826331 -40.568921 26.909747 -17.780692 0.734372 -18.258339 6.167353 -44.126577 -19.015850 65.680876 83.922008 62.125748 -3.371846 -1.012382 8.011422 0.704999 -1.342158 0.306370 12.109446 -43.024448 5.780290 40.389875 80.766465 34.247998 -2.797393 -1.139300 5.655444 0.604889 1.245342 0.267840
39.673397 50.615993 261.540355 -62.982182 -38.569744 0.087377 2.386688 10.784104 -3.368861 1.141232 4.767270 -0.908442 1.141232 4.767270 -0.908442 0.862533 3.573782 -0.689861 -1.942947 23.174523 3.334988 -2.877188 -1.015156 4.063257 -6.602910 11.302422 17.725794 26.618727 -17.328190 -35.387049 55.667564 -49.770632 -19.537332 14.851546 -1.912872 -1.880291 -6.823134 11.576514 -5.712386 -7.701715 -30.082684 15.139029 -70.830842 -40.568770 26.908209 -17.778993 0.732336 -18.260972 6.173554 -44.126343 -19.010376 65.677559 83.928458 62.124466 -3.376967 -1.009564 8.007504 0.710939 -1.346292 0.310801 12.119228 -43.021925 5.779088 40.349747 80.772170 34.213540 -2.789487 -1.147441 5.656075 0.605530 1.248044 0.267015
39.675339 50.616898 261.547996 -62.923676 -38.572873 0.106455 2.329285 10.782065 -3.425773 1.140698 4.766137 -0.907615 1.140698 4.766137 -0.907615 0.862125 3.572934 -0.689235 -1.945749 23.176392 3.328507 -2.878708 -1.013149 4.056861 -6.602307 11.313394 17.723984 26.609151 -17.330770 -35.384134 55.685400 -49.772617 -19.547590 14.843344 -1.921201 -1.882583 -6.823883 11.585911 -5.720171 -7.696292 -30.081524 15.137853 -70.835595 -40.566530 26.904525 -17.780565 0.734335 -18.248563 6.184076 -44.119453 -19.088864 65.737465 83.931687 62.185940 -3.410813 -0.995204 7.990565 0.746406 -1.361820 0.327829 12.129496 -43.002414 5.702348 40.321741 80.769565 34.189554 -2.828638 -1.154087 5.640807 0.644368 1.257220 0.282957
39.674703 50.616985 261.547258 -62.929851 -38.570141 0.107185 2.335045 10.774054 -3.424495 1.141004 4.765511 -0.907945 1.141004 4.765511 -0.907945 0.862355 3.572463 -0.689484 -1.949745 23.177802 3.325395 -2.882327 -1.011461 4.054432 -6.600810 11.325197 17.726302 26.609593 -17.340541 -35.376728 55.693823 -49.766040 -19.548656 14.843762 -1.915392 -1.880558 -6.823031 11.598327 -5.718510 -7.699032 -30.086293 15.137772 -70.837236 -40.563944 26.904052 -17.778921 0.738448 -18.237891 6.187195 -44.123387 -19.084019 65.742161 83.928741 62.190265 -3.411220 -0.992854 7.992399 0.744436 -1.363564 0.326353 12.137798 -43.004127 5.697766 40.375555 80.760220 34.251242 -2.836627 -1.155072 5.639783 0.643605 1.258254 0.280473
39.675041 50.617851 261.548107 -62.930071 -38.570347 0.112066 2.333975 10.769939 -3.429334 1.140658 4.765390 -0.907929 1.140658 4.765390 -0.907929 0.862096 3.572373 -0.689469 -1.950950 23.178353 3.320946 -2.882583 -1.010989 4.049860 -6.597814 11.330835 17.725227 26.599903 -17.343477 -35.372836 55.707555 -49.762395 -19.558862 14.836794 -1.917047 -1.878589 -6.819320 11.603114 -5.719593 -7.698879 -30.089654 15.138485 -70.836602 -40.560629 26.901151 -17.775182 0.735202 -18.237299 6.194812 -44.122341 -19.093374 65.723134 83.930704 62.171220 -3.402172 -0.990465 7.998661 0.742996 -1.366264 0.322665 12.145987 -42.999064 5.685874 40.376858 80.752557 34.255522 -2.837873 -1.153476 5.641843 0.644462 1.259136 0.278885
39.674939 50.617972 261.549157 -62.923886 -38.569579 0.108911 2.331985 10.770982 -3.432695 1.141057 4.765420 -0.908124 1.141057 4.765420 -0.908124 0.862396 3.572395 -0.689618 -1.955959 23.175279 3.318247 -2.887370 -1.014606 4.048066 -6.598354 11.333124 17.726323 26.594145 -17.340439 -35.370489 55.715952 -49.764114 -19.566848 14.841491 -1.922346 -1.879971 -6.824864 11.601094 -5.715529 -7.688293 -30.089267 15.135925 -70.836540 -40.561213 26.901755 -17.774580 0.742272 -18.239332 6.185637 -44.122593 -19.100907 65.757356 83.920567 62.205469 -3.392294 -0.995025 8.000257 0.731079 -1.364180 0.318217 12.141155 -43.000592 5.685639 40.375234 80.753051 34.255083 -2.846520 -1.144639 5.641069 0.652695 1.253958 0.280107
39.673746 50.619096 261.550947 -62.915859 -38.574831 0.106906 2.325825 10.776444 -3.436825 1.141404 4.765406 -0.908836 1.141404 4.765406 -0.908836 0.862662 3.572383 -0.690155 -1.960140 23.168251 3.315909 -2.891312 -1.022971 4.046418 -6.597205 11.332205 17.732732 26.597498 -17.335423 -35.376059 55.715168 -49.761365 -19.568593 14.835236 -1.919571 -1.880628 -6.826287 11.602816 -5.708854 -7.681632 -30.087983 15.130884 -70.839713 -40.564955 26.908519 -17.779766 0.741799 -18.243756 6.180894 -44.118537 -19.106089 65.798857 83.923767 62.246866 -3.388327 -0.995776 8.000671 0.731626 -1.367582 0.317700 12.139277 -42.995398 5.682024 40.366993 80.755674 34.247225 -2.844394 -1.135723 5.642784 0.654996 1.245818 0.281778
39.672700 50.619867 261.551568 -62.918347 -38.573839 0.107475 2.327999 10.775091 -3.438899 1.141769 4.765273 -0.909609 1.141769 4.765273 -0.909609 0.862942 3.572281 -0.690736 -1.961258 23.168087 3.315810 -2.892504 -1.023126 4.046575 -6.595724 11.335012 17.731051 26.601273 -17.341922 -35.378064 55.716233 -49.762024 -19.560740 14.828123 -1.910963 -1.885323 -6.827345 11.608905 -5.703878 -7.661725 -30.094135 15.121892 -70.862657 -40.567939 26.911758 -17.774488 0.759492 -18.238597 6.184805 -44.118488 -19.105816 65.789012 83.925097 62.235376 -3.385506 -0.992941 8.008131 0.725912 -1.370116 0.314917 12.151818 -42.993074 5.682860 40.262894 80.765334 34.147456 -2.845485 -1.138207 5.647411 0.662053 1.248681 0.283199
39.674755 50.619430 261.554296 -62.915050 -38.566216 0.117090 2.323813 10.765861 -3.448923 1.142407 4.764595 -0.909588 1.142407 4.764595 -0.909588 0.863418 3.571771 -0.690725 -1.963578 23.165779 3.312864 -2.894311 -1.025950 4.043878 -6.597315 11.342246 17.724960 26.602771 -17.349665 -35.379320 55.723537 -49.759656 -19.563553 14.825721 -1.911740 -1.890021 -6.828406 11.613582 -5.711791 -7.657572 -30.093992 15.121373 -70.875327 -40.570990 26.919058 -17.777634 0.767775 -18.247764 6.194348 -44.127947 -19.126300 65.824014 83.922406 62.267872 -3.386741 -0.989785 8.007466 0.727077 -1.372110 0.317476 12.166629 -42.994852 5.658897 40.227140 80.761762 34.112517 -2.842921 -1.136281 5.651312 0.659732 1.250764 0.284042
39.674755 50.620851 261.559129 -62.904294 -38.573123 0.121667 2.317024 10.773130 -3.462999 1.143510 4.764314 -0.910821 1.143510 4.764314 -0.910821 0.864254 3.571557 -0.691657 -1.963736 23.162710 3.316548 -2.895338 -1.029421 4.047906 -6.603018 11.346092 17.733966 26.610829 -17.344925 -35.385924 55.715800 -49.753189 -19.559875 14.833312 -1.928033 -1.895495 -6.834602 11.615028 -5.705056 -7.652449 -30.097214 15.120439 -70.882617 -40.572237 26.919914 -17.781127 0.773168 -18.253913 6.187530 -44.120388 -19.145131 65.837888 83.927525 62.278473 -3.365105 -0.999661 8.005789 0.725253 -1.368708 0.316923 12.172365 -42.980689 5.641532 40.234609 80.756609 34.119887 -2.852689 -1.138719 5.650579 0.663525 1.253515 0.288767
39.675520 50.621375 261.561318 -62.896596 -38.566215 0.119307 2.310421 10.768022 -3.465854 1.143400 4.764375 -0.911365 1.143400 4.764375 -0.911365 0.864177 3.571602 -0.692064 -1.963942 23.160186 3.316161 -2.895451 -1.032454 4.047499 -6.601416 11.348001 17.734011 26.619111 -17.347645 -35.386590 55.713363 -49.746748 -19.559033 14.831248 -1.926734 -1.898766 -6.838328 11.611265 -5.707855 -7.648514 -30.097405 15.123720 -70.883317 -40.568291 26.918227 -17.778421 0.769081 -18.254617 6.182246 -44.125257 -19.153491 65.837190 83.923121 62.278836 -3.359690 -1.005538 8.000112 0.725715 -1.364176 0.319899 12.180369 -42.985615 5.634492 40.207336 80.754996 34.094381 -2.863628 -1.132763 5.648103 0.671641 1.252022 0.296304
39.674537 50.623045 261.563697 -62.897086 -38.569652 0.117566 2.312065 10.770532 -3.466650 1.143757 4.764104 -0.913107 1.143757 4.764104 -0.913107 0.864458 3.571394 -0.693372 -1.962297 23.160335 3.318317 -2.894175 -1.032229 4.049466 -6.599619 11.351168 17.739386 26.624224 -17.348631 -35.385926 55.711153 -49.742053 -19.562223 14.833017 -1.931618 -1.897026 -6.833304 11.615981 -5.699301 -7.647673 -30.103235 15.123088 -70.887033 -40.561516 26.916995 -17.776562 0.761675 -18.252835 6.170223 -44.123813 -19.148255 65.892954 83.914097 62.327364 -3.356147 -1.006134 8.000130 0.721255 -1.366200 0.318671 12.180298 -42.982439 5.635893 40.204968 80.758801 34.096156 -2.864142 -1.129112 5.640548 0.675577 1.246879 0.300744
39.674479 50.623385 261.564871 -62.896623 -38.565892 0.114608 2.315849 10.762842 -3.467002 1.144700 4.763144 -0.914298 1.144700 4.763144 -0.914298 0.865173 3.570671 -0.694271 -1.963146 23.162600 3.319438 -2.895384 -1.029423 4.050925 -6.603464 11.354652 17.744229 26.627523 -17.346389 -35.386117 55.702106 -49.739299 -19.552013 14.828985 -1.933046 -1.902925 -6.828536 11.625999 -5.689421 -7.657349 -30.108847 15.128253 -70.884428 -40.562453 26.908951 -17.776377 0.760635 -18.251872 6.169268 -44.126744 -19.148798 65.914125 83.905747 62.350038 -3.359513 -1.004600 8.001634 0.717712 -1.367569 0.316426 12.178925 -42.984701 5.640834 40.181226 80.760843 34.072173 -2.870845 -1.129449 5.638515 0.683957 1.247796 0.302930
